<?xml version="1.0" encoding="utf-8"?>
<!-- Generator: Adobe Illustrator 25.2.3, SVG Export Plug-In . SVG Version: 6.00 Build 0)  -->
<svg version="1.1" id="Layer_1" xmlns="http://www.w3.org/2000/svg" xmlns:xlink="http://www.w3.org/1999/xlink" x="0px" y="0px"
	 viewBox="0 0 750 500" style="enable-background:new 0 0 750 500;" xml:space="preserve">
<style type="text/css">
	.st0{fill:#FFFFFF;}
	.st1{clip-path:url(#SVGID_1_);fill:url(#SVGID_2_);}
	.st2{opacity:0.2;clip-path:url(#SVGID_1_);fill:url(#SVGID_3_);}
	.st3{opacity:0.2;clip-path:url(#SVGID_1_);fill:url(#SVGID_4_);}
	.st4{opacity:0.2;clip-path:url(#SVGID_1_);fill:url(#SVGID_5_);}
	.st5{opacity:0.2;clip-path:url(#SVGID_1_);fill:url(#SVGID_6_);}
	.st6{clip-path:url(#SVGID_1_);fill:#DFDFEF;}
	.st7{clip-path:url(#SVGID_1_);fill:url(#SVGID_7_);}
	.st8{clip-path:url(#SVGID_1_);fill:#F8E6CB;}
	.st9{clip-path:url(#SVGID_1_);}
	.st10{fill:none;stroke:#6949FF;stroke-miterlimit:10;}
</style>
<rect x="0" y="0" class="st0" width="750" height="500"/>
<g>
	<defs>
		<rect id="SVGID_9_" x="0" y="0" width="750" height="500"/>
	</defs>
	<clipPath id="SVGID_1_">
		<use xlink:href="#SVGID_9_"  style="overflow:visible;"/>
	</clipPath>
	<linearGradient id="SVGID_2_" gradientUnits="userSpaceOnUse" x1="375" y1="9.094947e-13" x2="375" y2="500">
		<stop  offset="0" style="stop-color:#F7FFFF"/>
		<stop  offset="1" style="stop-color:#E3DBDB"/>
	</linearGradient>
	<rect x="0" y="0" class="st1" width="750" height="500"/>
	<linearGradient id="SVGID_3_" gradientUnits="userSpaceOnUse" x1="221.6613" y1="466.9291" x2="732.2383" y2="466.9291">
		<stop  offset="0" style="stop-color:#D1D5DE"/>
		<stop  offset="1" style="stop-color:#DBDBDB"/>
	</linearGradient>
	<path class="st2" d="M682.5,545.3c-7.5-21.6-5.5-45.4-1.5-67.9c4-22.5,9.8-45,9.5-67.9c-0.5-37.4-18.4-74.2-47.7-97.5
		c-29.3-23.3-69.3-32.5-105.7-24c-23,5.4-44.7,17.3-68.3,18.3c-24.3,1-47.3-9.7-71.2-14.1c-56.7-10.4-117.5,18.1-149.2,66.3
		c-31.7,48.1-34.7,112.7-11.5,165.5s70.8,93.2,125.3,112c54.5,18.7,115.2,16.6,169.9-1.7c26.8-8.9,52.3-21.6,79.5-29.3
		c27.2-7.7,57.2-10.1,83.1,1.3l37.5-19.8C709.4,585.8,690,566.9,682.5,545.3z"/>
	<linearGradient id="SVGID_4_" gradientUnits="userSpaceOnUse" x1="-227.9816" y1="595.418" x2="282.5954" y2="595.418">
		<stop  offset="0" style="stop-color:#D1D5DE"/>
		<stop  offset="1" style="stop-color:#DBDBDB"/>
	</linearGradient>
	<path class="st3" d="M232.8,673.8c-7.5-21.6-5.5-45.4-1.5-67.9c4-22.5,9.8-45,9.5-67.9c-0.5-37.4-18.4-74.2-47.7-97.5
		c-29.3-23.3-69.3-32.5-105.7-24c-23,5.4-44.7,17.3-68.3,18.3c-24.3,1-47.3-9.7-71.2-14.1c-56.7-10.4-117.5,18.1-149.2,66.3
		c-31.7,48.1-34.7,112.7-11.5,165.5c23.2,52.8,70.8,93.2,125.3,112c54.5,18.7,115.2,16.6,169.9-1.7c26.8-8.9,52.3-21.6,79.5-29.3
		c27.2-7.7,57.2-10.1,83.1,1.3l37.5-19.8C259.7,714.3,240.4,695.4,232.8,673.8z"/>
	<linearGradient id="SVGID_5_" gradientUnits="userSpaceOnUse" x1="391.9715" y1="-86.7707" x2="902.5485" y2="-86.7707">
		<stop  offset="0" style="stop-color:#D1D5DE"/>
		<stop  offset="1" style="stop-color:#DBDBDB"/>
	</linearGradient>
	<path class="st4" d="M852.8-8.4c-7.5-21.6-5.5-45.4-1.5-67.9c4-22.5,9.8-45,9.5-67.9c-0.5-37.4-18.4-74.2-47.7-97.5
		s-69.3-32.5-105.7-24c-23,5.4-44.7,17.3-68.3,18.3c-24.3,1-47.3-9.7-71.2-14.1c-56.7-10.4-117.5,18.1-149.2,66.3
		C387-147.1,384-82.5,407.2-29.8C430.4,23,478,63.4,532.5,82.2c54.5,18.7,115.2,16.6,169.9-1.7c26.8-8.9,52.3-21.6,79.5-29.3
		c27.2-7.7,57.2-10.1,83.1,1.3l37.5-19.8C879.7,32.1,860.3,13.2,852.8-8.4z"/>
	<linearGradient id="SVGID_6_" gradientUnits="userSpaceOnUse" x1="9.094947e-13" y1="95.2595" x2="495.82" y2="95.2595">
		<stop  offset="0" style="stop-color:#D1D5DE"/>
		<stop  offset="1" style="stop-color:#DBDBDB"/>
	</linearGradient>
	<path class="st5" d="M495.8,0c-4.2,25.2-14.5,49.4-30.1,69.6c-31,39.8-82.3,62.9-132.6,59.7c-5.4-0.3-10.7-0.9-16.1-1.7
		c-28.3-3.8-57.1-10.7-82.5,1.1c-21.5,10-35.3,31.5-54.8,45.2c-25.4,17.9-59.7,20.8-89.2,11.2c-29.6-9.5-54.6-30.4-72.9-55.6
		c-6.3-8.7-11.9-17.9-17.5-27.1V0H495.8z"/>
	<path class="st6" d="M609.2,0c-6.3,5.8-13.5,10.6-21.6,13.7c-14.6,5.7-31.1,6.7-44.3,15.1c-17.5,11-25.6,32.1-30,52.2
		c-4.4,20.2-6.4,41.3-16.3,59.4c-20.6,37.5-71.8,50.4-112.3,36.8c-27-9.1-49.6-27.3-67.8-49.6c-9.1-11.2-17.1-23.3-24.1-35.8
		c-15.6-28.2-27.1-59.4-48.6-83.5c-2.6-2.9-5.4-5.7-8.3-8.3H609.2z"/>
	<path class="st6" d="M750,245.8V500H384.2c1.2-10.7,3.5-21.3,6.9-31.6c11.4-34.9,36.2-65.5,67.5-84.2c16.6-9.9,35-16.5,54.3-18.6
		c25.1-2.8,53.5,0.6,72.8-15.7c11.7-9.8,17.3-24.7,24.6-38.1c20.7-38,59.6-67.2,102.8-70.2C725.5,240.6,738.1,242.2,750,245.8z"/>
	<linearGradient id="SVGID_7_" gradientUnits="userSpaceOnUse" x1="161.33" y1="429.0495" x2="647.26" y2="429.0495">
		<stop  offset="0" style="stop-color:#D1D5DE"/>
		<stop  offset="1" style="stop-color:#DBDBDB"/>
	</linearGradient>
	<path class="st7" d="M647.3,500H161.3c1.5-13.7,4.9-27.2,9.9-40.1c11.7-29.9,35.2-58.4,67-63c13.7-2,27.2,0.7,40.2,5.5
		c18.7,6.9,39.6,1.3,52.5-14c9.1-10.8,20.7-19.4,33.8-24.6c24.2-9.6,52.9-7.3,75.2,6.1c6.6,4,12.7,8.9,18.6,14
		c16.7,14.7,31.7,31.9,52.7,38.3c21.9,6.6,45.8,0,68.2,4.5c32.8,6.6,57,36.5,66.5,68.6C646.5,497,646.9,498.5,647.3,500z"/>
	
		<ellipse transform="matrix(0.2206 -0.9754 0.9754 0.2206 0.3458 312.0384)" class="st8" cx="195.4" cy="155.8" rx="34.1" ry="34.1"/>
	
		<ellipse transform="matrix(0.7489 -0.6627 0.6627 0.7489 -21.5979 461.0347)" class="st8" cx="597.5" cy="259" rx="11.7" ry="11.7"/>
	<path class="st8" d="M103.4,396.5c0,3.2-2.6,5.8-5.8,5.8s-5.8-2.6-5.8-5.8c0-3.2,2.6-5.8,5.8-5.8S103.4,393.3,103.4,396.5z"/>
	<path class="st8" d="M659,213.6c0,3.2-2.6,5.8-5.8,5.8c-3.2,0-5.8-2.6-5.8-5.8c0-3.2,2.6-5.8,5.8-5.8
		C656.3,207.7,659,210.4,659,213.6z"/>
	<g class="st9">
		<path class="st10" d="M88.7-12.2c41.6-0.1,82.8,19.1,109.5,50.9c23.2,27.6,35.2,62.8,55.1,92.8c19.9,30,53.5,56.4,89,49.8
			c24.3-4.5,43.7-23.9,55.1-45.9c11.4-21.9,16.4-46.6,22.5-70.6c6.1-24,13.9-48.3,29.8-67.3c20.1-24.1,52.7-37.1,83.9-33.4"/>
		<path class="st10" d="M102.6-13.7c39,0,77.6,17.9,102.7,47.7c21.8,25.8,33,58.9,51.6,87c18.7,28.2,50.2,52.9,83.4,46.7
			c22.8-4.2,40.9-22.4,51.7-43c10.7-20.6,15.4-43.7,21.1-66.1c5.7-22.5,13-45.3,27.9-63.1c18.8-22.6,49.4-34.8,78.6-31.3"/>
		<path class="st10" d="M116.5-15.2c36.4,0,72.4,16.7,95.8,44.5c20.3,24.1,30.8,54.9,48.2,81.2c17.4,26.3,46.8,49.3,77.8,43.6
			c21.3-4,38.2-20.9,48.2-40.1c10-19.2,14.3-40.7,19.7-61.7c5.4-21,12.2-42.3,26-58.9c17.6-21.1,46.1-32.4,73.4-29.2"/>
		<path class="st10" d="M130.5-16.7c33.8,0,67.2,15.5,89,41.3c18.9,22.4,28.6,51,44.7,75.4s43.5,45.8,72.3,40.4
			c19.8-3.7,35.5-19.4,44.8-37.3c9.3-17.8,13.3-37.8,18.3-57.3c5-19.5,11.3-39.3,24.2-54.7c16.3-19.6,42.8-30.1,68.1-27.1"/>
		<path class="st10" d="M144.4-18.2c31.2,0,62,14.3,82.1,38.1c17.4,20.7,26.4,47.1,41.3,69.6c14.9,22.5,40.1,42.3,66.7,37.3
			c18.2-3.4,32.7-17.9,41.3-34.4c8.6-16.5,12.3-34.9,16.9-52.9c4.6-18,10.4-36.2,22.3-50.5C430.1-29,454.5-38.7,477.9-36"/>
	</g>
	<g class="st9">
		<path class="st10" d="M306,572.5c-6.9-25.1-11.9-52.5-2.3-76.6c12.6-31.7,47.5-49.4,81.4-53.5c33.9-4.1,67.9,2.7,101.9,5.2
			c34,2.6,70.4,0.3,98.4-19.1c38.9-26.9,51.6-79.4,86.7-111.2c29.2-26.5,73.4-35.2,110.5-21.8"/>
		<path class="st10" d="M331.8,572.5c-6.5-23.7-11.3-49.6-2.2-72.5c11.9-30,45-46.8,77-50.6c32-3.8,64.3,2.5,96.4,5
			c32.2,2.4,66.6,0.3,93.1-18c36.8-25.5,48.8-75.1,82-105.2c27.7-25,69.4-33.3,104.5-20.7"/>
		<path class="st10" d="M357.5,572.5c-6.1-22.4-10.6-46.8-2-68.4c11.2-28.3,42.4-44.1,72.6-47.7c30.2-3.6,60.6,2.4,90.9,4.7
			c30.3,2.3,62.8,0.3,87.8-17c34.7-24,46-70.9,77.3-99.2c26.1-23.6,65.5-31.4,98.6-19.5"/>
		<path class="st10" d="M383.3,572.5c-5.8-21-10-44-1.9-64.2c10.6-26.6,39.8-41.4,68.2-44.8c28.4-3.4,56.9,2.2,85.4,4.4
			c28.5,2.2,59,0.3,82.5-16c32.6-22.6,43.3-66.6,72.6-93.2c24.5-22.2,61.5-29.5,92.6-18.3"/>
		<path class="st10" d="M409,572.5c-5.4-19.7-9.3-41.1-1.8-60.1c9.9-24.8,37.3-38.7,63.8-41.9c26.5-3.2,53.3,2.1,79.9,4.1
			c26.7,2,55.2,0.3,77.2-15c30.5-21.1,40.5-62.3,68-87.1c22.9-20.7,57.5-27.6,86.6-17.1"/>
	</g>
	<g class="st9">
		<path class="st10" d="M-7.4,199.6c-5,17.5,3.9,36.4,16.9,49.1c13,12.8,29.6,21,44.8,30.9c15.2,9.9,30,22.6,35.8,39.8
			c10.3,30.7-10.7,61.9-20.7,92.7c-15.1,46.6-3.3,100.9,29.7,137"/>
		<path class="st10" d="M-19.3,203.2c-5,17.5,3.9,36.4,16.9,49.1c13,12.8,29.6,21,44.8,30.9c15.2,9.9,30,22.6,35.8,39.8
			c10.3,30.7-10.7,61.9-20.7,92.7c-15.1,46.6-3.3,100.9,29.7,137"/>
		<path class="st10" d="M-31.2,206.9c-5,17.5,3.9,36.4,16.9,49.1c13,12.8,29.6,21,44.8,30.9c15.2,9.9,30,22.6,35.8,39.8
			c10.3,30.7-10.7,61.9-20.7,92.7c-15.1,46.6-3.3,100.9,29.7,137"/>
		<path class="st10" d="M-43,210.5c-5,17.5,3.9,36.4,16.9,49.1c13,12.8,29.6,21,44.8,30.9c15.2,9.9,30,22.6,35.8,39.8
			c10.3,30.7-10.7,61.9-20.7,92.7c-15.1,46.6-3.3,100.9,29.7,137"/>
	</g>
	<g class="st9">
		<path class="st10" d="M575.8-186.9c2.5,18,18.4,31.6,35.4,38c17,6.4,35.6,7.2,53.5,10c18,2.8,36.6,8.4,48.9,21.8
			c21.9,23.8,15.5,60.9,18.9,93.1c5.2,48.7,38,93.5,83,113"/>
		<path class="st10" d="M566.5-178.7c2.5,18,18.4,31.6,35.4,38c17,6.4,35.6,7.2,53.5,10c18,2.8,36.6,8.4,48.9,21.8
			c21.9,23.8,15.5,60.9,18.9,93.1c5.2,48.7,38,93.5,83,113"/>
		<path class="st10" d="M557.1-170.6c2.5,18,18.4,31.6,35.4,38c17,6.4,35.6,7.2,53.5,10c18,2.8,36.6,8.4,48.9,21.8
			c21.9,23.8,15.5,60.9,18.9,93.1c5.2,48.7,38,93.5,83,113"/>
		<path class="st10" d="M547.7-162.5c2.5,18,18.4,31.6,35.4,38c17,6.4,35.6,7.2,53.5,10c18,2.8,36.6,8.4,48.9,21.8
			c21.9,23.8,15.5,60.9,18.9,93.1c5.2,48.7,38,93.5,83,113"/>
	</g>
</g>
</svg>
