<?xml version="1.0" encoding="utf-8"?>
<!-- Generator: Adobe Illustrator 25.2.3, SVG Export Plug-In . SVG Version: 6.00 Build 0)  -->
<svg version="1.1" id="Layer_1" xmlns="http://www.w3.org/2000/svg" xmlns:xlink="http://www.w3.org/1999/xlink" x="0px" y="0px"
	 viewBox="0 0 1000 1000" style="enable-background:new 0 0 1000 1000;" xml:space="preserve">
<style type="text/css">
	.st0{fill:#6949FF;}
</style>
<g>
	<path class="st0" d="M990.8,568l0.5,232.2c0.1,31.8-16.9,61.1-44.4,76.9L867,923c-30.7,17.6-69,15.3-97.2-6
		c-11.8-8.9-23.8-16.8-34.6-23.4c-25.5-15.6-41.3-43-42.3-72.8c0-0.2,0-0.3,0-0.5c-1.4-41.4-3.7-82.7-7-123.9
		c-2.7-33.8-6.2-67.6-10.5-101.3c-3.4-26.3-7.3-52.6-12-78.7c-3.3-18.9-7-37.6-11.2-56.3c-3.5-15.4-7.4-30.6-11.9-45.8
		c27.8-8.1,54.8-19,79.6-34c24.7-15,47.1-34.2,64.3-57.5c6.2-8.4,11.8-17.5,14.6-27.6c1.1-4,1.7-8.2,0.9-12.2c-0.8-4-3.3-7.9-7-9.6
		c-1.4-0.6-3-0.9-4.6-0.6c-3,0.6-4.9,3.5-6.7,6c-3.9,5.5-8.6,10.3-13.8,14.7c-14.7,12.2-32.6,19.8-50.2,26.5
		c-20.8,8-42.5,14-64.4,18.6c-7.8,1.6-15.7,3-23.7,4c-7.3,1-15.8,2.5-23,1.5c-13.8-1.9-27.6-8.6-39.3-15.8c-6.5-4-12.6-8.6-19.8-11
		c-6.6-2.2-13.6-2.3-20.5-3c-8.2-0.8-16.4-2.4-24.3-4.9c-6.3-2-8.6-8-11.2-13.7c-12-25.7-35.1-44.4-51.5-67.5
		c-9-12.6-15.9-26.4-22.8-40.2c-6.3-12.8-12.2-28-21.6-38.9c-0.9-1-2-2.4-3.2-3c-4.1-1.9-6.3,3.3-7.2,6.7
		c-3.5,13.5-0.8,27.8,3.1,41.2c10.8,37.6,29.9,72.2,48.7,106.6c0.4,0.7,0.8,1.5,0.9,2.3c0.5,4.3-9.8,8.6-12.8,10.5
		c-6.2,3.7-12.4,7.3-19,10.3c-15.2,7-31.7,11.3-46.5,19.2c-3.9,2.1-7.8,4.5-11,7.7c-3.8,3.7-6.5,8.4-10.2,12.1
		c-7.3,7.3-17.8,10.3-27.9,12.3c-8,1.6-16.1,2.8-23.7,5.8c-7,2.8-14,6.5-20.5,10.3c-5.2,3.1-10.3,6.4-15.1,10.1
		c-0.7,0.5-4.3,4.3-5.2,4.2c-22.8-2.4-19,13.5-19,16.8c0,3.8-1.6,8-2.6,11.6c-1.3,4.8-2.4,7.5-6.5,10.6c-12.1,9.1-20.1,23.1-23.3,38
		c-1.1,5.2-1.6,11,1.1,15.6c2.6,4.6,7.8,7.1,13.1,7.8c5.2,0.7,10.5-0.2,15.7-1.1c0.8,0.9,1.6,1.9,2.4,2.8c-3,1.1-5.4,3.8-6.3,6.9
		c-1.4,5.1,1.8,10.3,4.7,14.3c3.5,4.8,7.7,9.1,12.1,13c3.6,3.2,7.6,5.9,12,7.9c10.4,4.8,22.1,5.5,33.3,4.3
		c10.7-1.2,20.8-4.8,31.4-6.4c0.9-0.1,1.9-0.2,2.7,0.2c0.7,0.3,1.2,1,1.7,1.5c3.3,3.6,8.3,6,12.5,8.4c4.2,2.4,8.5,4.6,12.8,6.8
		c9.1,4.6,18.3,9,27.6,13.2c3.1,1.4,6.2,3.1,9.3,4.5c3.2,1.4,6.7,1.7,9.9,3.4c5.1,2.7,8.8,7.7,10,13.4c1.4,6.3-0.3,12.8-1.3,19.1
		c-0.7,4.6-0.8,9.3-1,13.9c-0.8,17.9,0.3,36,2.2,53.8c3.9,35.9-9.1,67.4-18,84.1c-5.5,10.4-10,21.3-13.3,32.7
		c-9.9,35.3-20.8,73.8-31.4,111.1c-15.7,55.4-79.3,81.3-129.3,52.5L53.8,877.2C26.3,861.3,9.3,832,9.4,800.2L9.9,568L9.4,335.9
		c-0.1-31.8,16.9-61.1,44.4-76.9l201.3-115.6L455.9,26.8c27.5-15.9,61.4-15.9,88.9,0l200.8,116.5l201.3,115.6
		c27.5,15.8,44.5,45.2,44.4,76.9L990.8,568z"/>
</g>
</svg>
