<?xml version="1.0" encoding="utf-8"?>
<!-- Generator: Adobe Illustrator 25.2.3, SVG Export Plug-In . SVG Version: 6.00 Build 0)  -->
<svg version="1.1" id="Layer_1" xmlns="http://www.w3.org/2000/svg" xmlns:xlink="http://www.w3.org/1999/xlink" x="0px" y="0px"
	 viewBox="0 0 1000 418.8" style="enable-background:new 0 0 1000 418.8;" xml:space="preserve">
<style type="text/css">
	.st0{fill:#6949FF;}
</style>
<g>
	<path class="st0" d="M446.3,232l0.2,92.3c0,12.6-6.7,24.3-17.6,30.6l-31.7,18.3c-12.2,7-27.4,6.1-38.7-2.4
		c-4.7-3.5-9.5-6.7-13.8-9.3c-10.1-6.2-16.4-17.1-16.8-29c0-0.1,0-0.2,0-0.2c-0.6-16.4-1.5-32.9-2.8-49.3
		c-1.1-13.5-2.4-26.8-4.2-40.2c-1.4-10.4-2.9-20.9-4.7-31.3c-1.3-7.5-2.8-14.9-4.5-22.4c-1.4-6.1-2.9-12.2-4.7-18.2
		c11-3.3,21.8-7.6,31.7-13.5c9.9-6,18.8-13.5,25.5-22.8c2.4-3.3,4.7-6.9,5.8-11c0.4-1.6,0.7-3.3,0.4-4.8c-0.3-1.6-1.3-3.2-2.8-3.8
		c-0.6-0.2-1.2-0.4-1.8-0.2c-1.2,0.2-2,1.4-2.7,2.4c-1.6,2.2-3.4,4.1-5.5,5.8c-5.8,4.9-13,7.8-20,10.5c-8.3,3.2-16.9,5.5-25.6,7.3
		c-3.1,0.7-6.3,1.2-9.4,1.6c-2.9,0.4-6.3,1-9.1,0.6c-5.5-0.7-10.9-3.4-15.7-6.3c-2.5-1.6-5.1-3.4-7.9-4.3c-2.6-0.9-5.4-0.9-8.2-1.2
		c-3.3-0.3-6.5-1-9.6-2c-2.5-0.8-3.4-3.2-4.5-5.5c-4.7-10.2-14-17.6-20.5-26.8c-3.6-5-6.4-10.5-9.1-16c-2.5-5.1-4.9-11.2-8.6-15.4
		c-0.3-0.4-0.8-1-1.3-1.1c-1.6-0.7-2.5,1.3-2.9,2.7c-1.4,5.4-0.3,11,1.2,16.4c4.2,14.9,11.9,28.7,19.3,42.3c0.2,0.3,0.3,0.6,0.3,0.9
		c0.2,1.7-3.9,3.4-5.1,4.2c-2.4,1.5-5,2.9-7.5,4.1c-6,2.8-12.6,4.5-18.4,7.6c-1.6,0.8-3.1,1.8-4.4,3c-1.5,1.5-2.5,3.3-4.1,4.8
		c-2.9,2.9-7,4.1-11.1,4.9c-3.2,0.7-6.4,1.1-9.4,2.3c-2.8,1.1-5.5,2.6-8.2,4.1c-2,1.2-4.1,2.5-6,4c-0.3,0.2-1.7,1.7-2,1.6
		c-9.1-1-7.5,5.4-7.5,6.7c0,1.6-0.7,3.2-1.1,4.7c-0.6,1.9-0.9,2.9-2.6,4.2c-4.8,3.6-8,9.2-9.2,15.1c-0.4,2-0.7,4.3,0.4,6.2
		c1.1,1.8,3.1,2.9,5.2,3.1c2,0.2,4.2-0.1,6.2-0.5c0.3,0.4,0.7,0.7,1,1.1c-1.2,0.4-2.1,1.5-2.5,2.7c-0.6,2,0.7,4.1,1.9,5.7
		c1.4,1.9,3.1,3.6,4.8,5.1c1.4,1.3,3,2.4,4.7,3.2c4.2,1.9,8.7,2.2,13.2,1.7c4.2-0.5,8.2-2,12.5-2.5c0.3-0.1,0.7-0.1,1.1,0.1
		c0.2,0.2,0.5,0.4,0.7,0.6c1.3,1.5,3.3,2.4,5,3.3c1.6,0.9,3.3,1.8,5.1,2.7c3.6,1.9,7.3,3.6,10.9,5.2c1.2,0.6,2.4,1.2,3.7,1.8
		c1.3,0.6,2.7,0.7,3.9,1.4c2,1.1,3.5,3.1,4,5.3c0.6,2.5-0.1,5.1-0.5,7.6c-0.2,1.8-0.3,3.7-0.4,5.5c-0.3,7.1,0.2,14.3,0.9,21.4
		c1.6,14.3-3.7,26.8-7.2,33.5c-2.2,4.2-4,8.5-5.3,13c-3.9,14-8.2,29.3-12.5,44.1c-6.3,22-31.5,32.3-51.4,20.9l-61.3-35.3
		c-10.9-6.3-17.6-18-17.6-30.6l0.2-92.3l-0.2-92.3c0-12.6,6.7-24.3,17.6-30.6l80-45.9l79.8-46.3c10.9-6.4,24.4-6.4,35.3,0L348.8,63
		l80,45.9c10.9,6.3,17.7,18,17.6,30.6L446.3,232z"/>
</g>
<g>
	<g>
		<path class="st0" d="M576.4,208.9v8.7h-25.1v-96.3h25.1v34.5c4.9-6,11-11.1,21.7-11.1c17,0,31.6,14.1,31.6,37.2
			c0,23.2-14.6,37.3-31.5,37.3C587.2,219.2,581,214.3,576.4,208.9z M605,181.6c0-9.4-6.5-16.1-14.6-16.1c-8,0-14.5,6.8-14.5,16.4
			c0,9.5,6.5,16.3,14.5,16.3C598.5,198.1,605,191.5,605,181.6z"/>
		<path class="st0" d="M640.9,121.2H666v96.3h-25.1V121.2z"/>
		<path class="st0" d="M676.5,196.8c0-14.8,11.3-22.4,27.9-22.4c6.6,0,13,1.4,17.1,2.7v-1.2c0-7.3-4.6-11.7-14.2-11.7
			c-7.5,0-13.3,1.5-19.7,3.9l-5.2-17.6c8-3.3,16.7-5.6,28.9-5.6c12.8,0,21.6,3,27.1,8.7c5.4,5.3,7.6,12.6,7.6,22.7v41.2h-24.8v-7.3
			c-4.9,5.4-11.7,9-21,9C686.9,219.2,676.5,211.3,676.5,196.8z M721.8,191.6v-3.3c-2.4-1.1-6.1-1.9-9.8-1.9
			c-7.2,0-11.5,3.5-11.5,9.1c0,4.9,3.7,7.7,8.8,7.7C716.6,203.4,721.8,198.8,721.8,191.6z"/>
		<path class="st0" d="M756.1,181.9c0-20.2,15.7-37.2,38.3-37.2c14.6,0,24.4,6.4,30.5,16L808,172.8c-3.4-4.7-7.5-7.1-12.9-7.1
			c-9.1,0-14.6,7.2-14.6,16.1c0,9.2,5.8,16.3,14.2,16.3c6,0,9.5-2.8,13.4-7.5l17,12.2c-6.6,9.8-16.1,16.4-31.7,16.4
			C772,219.3,756.1,202.3,756.1,181.9z"/>
		<path class="st0" d="M834.1,121.2h25.1v48.8l19.4-23.9h28.3l-24.8,28.6l25.5,42.7h-27.5l-14.4-24.3l-6.5,7.5v16.8h-25.1
			L834.1,121.2L834.1,121.2z"/>
	</g>
	<g>
		<path d="M551.6,243.7h25.4V341h-25.4V243.7z"/>
		<path d="M591.6,243.7h25.4V341h-25.4V243.7z"/>
		<path d="M627.5,320.1c0-14.9,11.4-22.7,28.2-22.7c6.6,0,13.2,1.4,17.4,2.8v-1.2c0-7.5-4.6-11.8-14.4-11.8
			c-7.6,0-13.4,1.5-19.9,4.1l-5.2-17.9c8.1-3.4,16.8-5.6,29.2-5.6c12.9,0,21.7,3.1,27.5,8.8c5.4,5.3,7.7,12.8,7.7,22.9V341H673v-7.5
			c-4.9,5.4-11.8,9.1-21.2,9.1C638,342.6,627.5,334.7,627.5,320.1z M673.4,314.9v-3.4c-2.6-1.1-6.1-1.9-9.9-1.9
			c-7.3,0-11.7,3.7-11.7,9.2c0,4.9,3.8,7.9,9,7.9C668.2,326.7,673.4,322.1,673.4,314.9z"/>
		<path d="M710.9,268.8h25.4v9.9c4.6-6,11.4-11.5,21.4-11.5c9.6,0,17,4.2,20.8,11.8c6.2-7.2,13.6-11.8,24.1-11.8
			c15.3,0,24.7,9.6,24.7,26.4V341h-25.4v-39.2c0-7.9-3.9-12.1-9.9-12.1c-6,0-10.4,4.1-10.4,12.1V341h-25.4v-39.2
			c0-7.9-3.9-12.1-9.9-12.1c-6,0-10.3,4.1-10.3,12.1V341h-25.1V268.8z"/>
		<path d="M836.9,320.1c0-14.9,11.4-22.7,28.2-22.7c6.6,0,13.2,1.4,17.4,2.8v-1.2c0-7.5-4.6-11.8-14.4-11.8
			c-7.6,0-13.4,1.5-19.9,4.1l-5.2-17.9c8.1-3.4,16.8-5.6,29.2-5.6c12.9,0,21.7,3.1,27.5,8.8c5.4,5.3,7.7,12.8,7.7,22.9V341h-25.1
			v-7.5c-4.9,5.4-11.8,9.1-21.2,9.1C847.4,342.6,836.9,334.7,836.9,320.1z M882.8,314.9v-3.4c-2.6-1.1-6.1-1.9-9.9-1.9
			c-7.3,0-11.7,3.7-11.7,9.2c0,4.9,3.8,7.9,9,7.9C877.5,326.7,882.8,322.1,882.8,314.9z"/>
	</g>
	<g>
		<circle cx="930.1" cy="327.1" r="13.7"/>
	</g>
</g>
</svg>
